<svg xmlns="http://www.w3.org/2000/svg"
     xmlns:hw="https://hyperweave.dev/hw/v8.0"
     role="img"
     aria-labelledby="hw-012a86ef-title hw-012a86ef-desc"
     viewBox="0 0 64 64"
     width="64" height="64"
     data-hw-id="012a86ef-fd03-4188-b25a-365d3a88741d"
     data-hw-type="icon"
     data-hw-frame="icon"
     data-hw-genome="chrome-horizon"
     data-hw-status="active"
     data-hw-profile="chrome"
     data-hw-motion="static"
     data-hw-generation="1"
     data-hw-contract="012a86ef-fd03-4188-b25a-365d3a88741d"
     data-hw-variant="default"
     data-hw-regime="normal"
     data-hw-glyph="instagram"
     data-hw-chromatic="chrome-horizon">
  <title id="hw-012a86ef-title">instagram</title>
  <desc id="hw-012a86ef-desc">A icon artifact, using chrome-horizon genome.</desc>
  <metadata>
  <hw:artifact id="012a86ef-fd03-4188-b25a-365d3a88741d" type="icon" series="core" version="0.1.0"
               xmlns:hw="https://hyperweave.dev/hw/v8.0">
    <hw:provenance>
      <hw:generator>HyperWeave Compositor v0.1 (InnerAura Labs)</hw:generator>
      <hw:created>2026-03-27T22:38:03.164230+00:00</hw:created>
      <hw:human-directed>true</hw:human-directed>
    </hw:provenance>
    <hw:spec size="64x64" performance="composite-only"
             theme="dark" a11y="WCAG-AA" platform="web"/>
  </hw:artifact>
  <hw:composition xmlns:hw="https://hyperweave.dev/hw/v8.0">
    <hw:frame>icon</hw:frame>
    <hw:genome>chrome-horizon@0.1.0</hw:genome>
    <hw:profile>chrome</hw:profile>
    <hw:slots>
    </hw:slots>
    <hw:environment platform="web" motion="static" status="active"/>
  </hw:composition>
  <rdf:RDF xmlns:rdf="http://www.w3.org/1999/02/22-rdf-syntax-ns#"
           xmlns:dc="http://purl.org/dc/elements/1.1/">
    <rdf:Description>
      <dc:title>instagram</dc:title>
      <dc:creator>HyperWeave Compositor v0.1 (InnerAura Labs)</dc:creator>
      <dc:date>2026-03-27T22:38:03.164230+00:00</dc:date>
      <dc:rights>CC BY 4.0</dc:rights>
    </rdf:Description>
  </rdf:RDF>
  <hw:aesthetic xmlns:hw="https://hyperweave.dev/hw/v8.0">
    <hw:chromatic system="chrome-horizon" space="oklch"
                  palette="" contrast-ratio="4.5:1"/>
    <hw:motion vocabulary="static" physics="none"
               timing="phi" duration-base="2.618s"
               stagger-regime="contemplative" cim-compliant="true"/>
    <hw:geometry form-language="geometric" corner-radius="5px"
                 grid="auto" proportional-system="phi"
                 mathematical-basis="golden-ratio" symmetry="bilateral"/>
    <hw:typography stack="" hierarchy="11/18/8"
                   weight-range="500-900" metrics-method="lut"/>
    <hw:material surface="genome-native" depth="deep" texture="none"/>
  </hw:aesthetic>
  <hw:reasoning xmlns:hw="https://hyperweave.dev/hw/v8.0">
    <hw:intent></hw:intent>
    <hw:approach></hw:approach>
    <hw:tradeoffs></hw:tradeoffs>
    <hw:constraints-applied>self-contained, cim-compliant, wcag-aa</hw:constraints-applied>
    <hw:spatial-notes>64x64 (1.00), left-to-right</hw:spatial-notes>
  </hw:reasoning>
</metadata>
  <style>svg, :root {
  --dna-surface: #000A14;
  --dna-surface-alt: #0C1E2E;
  --dna-surface-deep: #06101A;
  --dna-ink-primary: #E0ECF6;
  --dna-ink-muted: #7A9AB8;
  --dna-ink-on-accent: #000A14;
  --dna-ink-bright: #E0ECF6;
  --dna-ink-sub: #7A9AB8;
  --dna-signal: #5BA3D4;
  --dna-signal-dim: #8A7355;
  --dna-border: #060810;
  --dna-border-tint: #0A1E2E;
  --dna-shadow-color: #000000;
  --dna-shadow-opacity: 0.30;
  --dna-glow: 0px;
  --dna-corner: 4px;
  --dna-rhythm-base: 6s;
  --dna-bg: #000A14;
  --dna-bg-alt: #0C1E2E;
  --dna-brand-text: #E0ECF6;
  --dna-font-display: 'Impact','Arial Black',system-ui,sans-serif;
  --dna-font-mono: 'Courier New',monospace;
  --dna-sep: #060810;
  --dna-status-delta-positive: #22C55E;
  --dna-status-delta-negative: #DC2626;
}
@media (prefers-color-scheme: light) {
  svg {
    --dna-surface: #F8FAFC;
    --dna-surface-top: #F8FAFC;
    --dna-surface-alt: #F1F5F9;
    --dna-surface-deep: #E2E8F0;
    --dna-bg: #F8FAFC;
    --dna-bg-alt: #F1F5F9;
    --dna-ink: #1E293B;
    --dna-ink-primary: #1E293B;
    --dna-ink-dark: #1E293B;
    --dna-ink-muted: #64748B;
    --dna-ink-sub: #64748B;
    --dna-ink-ghost: #CBD5E1;
    --dna-border: #CBD5E1;
    --dna-border-div: #CBD5E1;
    --dna-sep: #CBD5E1;
  }
}
/* === HyperWeave Bridge Classes ===
 * Maps semantic class names (hw-*) to genome DNA custom properties (--dna-*).
 * Genome-agnostic: works with ANY genome that defines the --dna-* contract.
 */

/* ── Surface fills ── */
.hw-surface      { fill: var(--dna-surface); }
.hw-surface-deep { fill: var(--dna-surface-deep); }
.hw-bg           { fill: var(--dna-bg); }
.hw-bg-alt       { fill: var(--dna-bg-alt); }

/* ── Signal / Accent ── */
.hw-signal       { fill: var(--dna-signal); }
.hw-signal-stroke { stroke: var(--dna-signal); }
.hw-signal-dim   { fill: var(--dna-signal-dim); }

/* ── Ink / Typography ── */
.hw-ink          { fill: var(--dna-ink-primary); }
.hw-ink-muted    { fill: var(--dna-ink-muted); }
.hw-ink-sub      { fill: var(--dna-ink-sub); }
.hw-ink-bright   { fill: var(--dna-ink-bright); }
.hw-ink-on-accent { fill: var(--dna-ink-on-accent); }

/* ── Border / Separator ── */
.hw-border       { stroke: var(--dna-border); }
.hw-sep          { stroke: var(--dna-sep); }

/* ── Status ── */
.hw-status-pass  { fill: var(--dna-status-passing-core); }
.hw-status-warn  { fill: var(--dna-status-warning-core); }
.hw-status-fail  { fill: var(--dna-status-failing-core); }
.hw-delta-pos    { fill: var(--dna-status-delta-positive); }
.hw-delta-neg    { fill: var(--dna-status-delta-negative); }

/* ── Extended ── */
.hw-glow         { flood-color: var(--dna-glow); }
.hw-brand-text   { fill: var(--dna-brand-text); }
.hw-metric-text  { fill: var(--dna-metric-text); }
.hw-border-tint  { stroke: var(--dna-border-tint); }
.hw-glyph-inner  { fill: var(--dna-glyph-inner); }
.hw-seam-gap     { fill: var(--dna-seam-gap); }
.hw-label-txt    { fill: var(--dna-label-text); }

/* === HyperWeave Accessibility Layer ===
 * Non-negotiable media queries for motion, color scheme, and forced colors.
 * Included in EVERY artifact.
 *
 * CAMO NOTE: @media (prefers-color-scheme) and @media (forced-colors: active)
 * are INERT when served through GitHub Camo as img tags. The img element
 * creates an isolated browsing context — the parent document's color scheme
 * and forced-colors mode do not propagate into it. Artifacts will always
 * render in their default (dark) theme on GitHub READMEs.
 *
 * These queries DO activate when the SVG is embedded directly (svg inline,
 * object, or opened as a standalone document). This is a known accepted
 * tradeoff: dark-default through Camo, adaptive in direct embed.
 */

/* ── Reduced Motion ── */
@media (prefers-reduced-motion: reduce) {
  .hw-logic-bit { animation: none !important; opacity: .8; }
  .hw-scanner { animation: none; opacity: 0; }
  *, *::before, *::after {
    animation-duration: 0.01ms !important;
    animation-iteration-count: 1 !important;
    transition-duration: 0.01ms !important;
  }
  animate, animateTransform, animateMotion, set {
    display: none !important;
  }
}

/* ── Light Mode Override (see CAMO NOTE above — inert through img) ── */
/* Genome-provided light_mode alleles are injected by the CSS assembler
   into a separate @media (prefers-color-scheme: light) block per artifact.
   This placeholder is intentionally empty; it exists as documentation. */

/* ── Forced Colors (Windows High Contrast) ── */
@media (forced-colors: active) {
  text { fill: CanvasText !important; }
  rect, path, circle, ellipse, polygon, polyline, line {
    stroke: CanvasText;
  }
  .hw-frame-bg { fill: Canvas !important; }
  .hw-accent-bar { fill: Highlight !important; }
  .hw-signal { fill: Highlight !important; }
  .hw-logic-bit { fill: Highlight !important; }
}
</style>
  <defs>
  <linearGradient id="hw-012a86ef-env" x1="0" x2="0" y1="0" y2="1">
    <stop offset="0%" stop-color="#000A14"/>
    <stop offset="12%" stop-color="#0A2540"/>
    <stop offset="25%" stop-color="#1A4A6E"/>
    <stop offset="36%" stop-color="#3A7EA8"/>
    <stop offset="44%" stop-color="#6AACC8"/>
    <stop offset="50%" stop-color="#C8DAE6"/>
    <stop offset="56%" stop-color="#B8A888"/>
    <stop offset="64%" stop-color="#6A5840"/>
    <stop offset="75%" stop-color="#2A2218"/>
    <stop offset="88%" stop-color="#100E0A"/>
    <stop offset="100%" stop-color="#060810"/>
  </linearGradient>
  <filter id="hw-012a86ef-sh" x="-6%" y="-4%" width="112%" height="114%">
    <feDropShadow dx="0" dy="1.5" stdDeviation="2" flood-color="#000" flood-opacity="0.4"/>
  </filter>
  <radialGradient id="hw-012a86ef-well" cx="0.5" cy="0.45" r="0.55">
    <stop offset="0%" stop-color="#0C1E2E"/>
    <stop offset="100%" stop-color="#06101A"/>
  </radialGradient>
  <clipPath id="hw-012a86ef-top-clip"><rect x="14" y="2" width="36" height="16"/></clipPath>
  </defs>


<circle cx="32" cy="32" r="28" fill="none" stroke="url(#hw-012a86ef-env)" stroke-width="3" filter="url(#hw-012a86ef-sh)"/>
<circle cx="32" cy="32" r="26.5" fill="url(#hw-012a86ef-well)"/>
<circle cx="32" cy="32" r="26.5" fill="none" stroke="#000510" stroke-width="0.5"/>
<g clip-path="url(#hw-012a86ef-top-clip)">
  <circle cx="32" cy="32" r="26" fill="none" stroke="#6AACC8" stroke-width="0.8" opacity="0.15"/>
</g>

<g transform="translate(17,17)">
  <svg viewBox="0 0 24 24" width="30" height="30">
    <path d="M7.0301.084c-1.2768.0602-2.1487.264-2.911.5634-.7888.3075-1.4575.72-2.1228 1.3877-.6652.6677-1.075 1.3368-1.3802 2.127-.2954.7638-.4956 1.6365-.552 2.914-.0564 1.2775-.0689 1.6882-.0626 4.947.0062 3.2586.0206 3.6671.0825 4.9473.061 1.2765.264 2.1482.5635 2.9107.308.7889.72 1.4573 1.388 2.1228.6679.6655 1.3365 1.0743 2.1285 1.38.7632.295 1.6361.4961 2.9134.552 1.2773.056 1.6884.069 4.9462.0627 3.2578-.0062 3.668-.0207 4.9478-.0814 1.28-.0607 2.147-.2652 2.9098-.5633.7889-.3086 1.4578-.72 2.1228-1.3881.665-.6682 1.0745-1.3378 1.3795-2.1284.2957-.7632.4966-1.636.552-2.9124.056-1.2809.0692-1.6898.063-4.948-.0063-3.2583-.021-3.6668-.0817-4.9465-.0607-1.2797-.264-2.1487-.5633-2.9117-.3084-.7889-.72-1.4568-1.3876-2.1228C21.2982 1.33 20.628.9208 19.8378.6165 19.074.321 18.2017.1197 16.9244.0645 15.6471.0093 15.236-.005 11.977.0014 8.718.0076 8.31.0215 7.0301.0839m.1402 21.6932c-1.17-.0509-1.8053-.2453-2.2287-.408-.5606-.216-.96-.4771-1.3819-.895-.422-.4178-.6811-.8186-.9-1.378-.1644-.4234-.3624-1.058-.4171-2.228-.0595-1.2645-.072-1.6442-.079-4.848-.007-3.2037.0053-3.583.0607-4.848.05-1.169.2456-1.805.408-2.2282.216-.5613.4762-.96.895-1.3816.4188-.4217.8184-.6814 1.3783-.9003.423-.1651 1.0575-.3614 2.227-.4171 1.2655-.06 1.6447-.072 4.848-.079 3.2033-.007 3.5835.005 4.8495.0608 1.169.0508 1.8053.2445 2.228.408.5608.216.96.4754 1.3816.895.4217.4194.6816.8176.9005 1.3787.1653.4217.3617 1.056.4169 2.2263.0602 1.2655.0739 1.645.0796 4.848.0058 3.203-.0055 3.5834-.061 4.848-.051 1.17-.245 1.8055-.408 2.2294-.216.5604-.4763.96-.8954 1.3814-.419.4215-.8181.6811-1.3783.9-.4224.1649-1.0577.3617-2.2262.4174-1.2656.0595-1.6448.072-4.8493.079-3.2045.007-3.5825-.006-4.848-.0608M16.953 5.5864A1.44 1.44 0 1 0 18.39 4.144a1.44 1.44 0 0 0-1.437 1.4424M5.8385 12.012c.0067 3.4032 2.7706 6.1557 6.173 6.1493 3.4026-.0065 6.157-2.7701 6.1506-6.1733-.0065-3.4032-2.771-6.1565-6.174-6.1498-3.403.0067-6.156 2.771-6.1496 6.1738M8 12.0077a4 4 0 1 1 4.008 3.9921A3.9996 3.9996 0 0 1 8 12.0077" fill="#E0ECF6"/>
  </svg>
</g>



</svg>
