<svg xmlns="http://www.w3.org/2000/svg" xmlns:hw="https://hyperweave.app/hw/v1.0"
     viewBox="0 0 604 676" width="420" height="470" role="img" aria-labelledby="t d"
     data-hw-component="logo-stacked" data-hw-chromatic="primer-porcelain"
     data-hw-variant="porcelain" data-hw-status="active" data-hw-regime="normal"
     data-protocol="hw-v1">
  <title id="t">HyperWeave — Where Vectors Meet Vision</title>
  <desc id="d">HyperWeave stacked logo, Primer porcelain variant (fired white glaze,
    cobalt underglaze — the editorial default). Octahedral mark with faceted volume,
    glass core, and a lit-to-shadow transmitter highlight, above the HyperWeave wordmark
    in Orbitron over WHERE VECTORS MEET VISION / INNERAURA LABS. Transparent (light
    surfaces).</desc>
  <metadata>
    <hw:artifact id="0197f47p-c020-7c68-9e70-hyperweaveporcelain" type="logo-stacked"
                 series="hyperweave-identity" version="3.0.0">
      <hw:provenance>
        <hw:generator>Claude Opus 4.8 (InnerAura Labs) [claude-opus-4-8]</hw:generator>
        <hw:created>2026-06-20T00:00:00Z</hw:created>
        <hw:human-directed>true</hw:human-directed>
      </hw:provenance>
      <hw:spec size="604x676" performance="paint-ok" theme="light" a11y="WCAG-AA" />
    </hw:artifact>
    <hw:aesthetic>
      <hw:chromatic system="primer-porcelain" space="srgb" contrast-ratio="5.5" />
      <hw:motion vocabulary="wave-collapse, breathe, fade" physics="damped" timing="phi"
                 cim-compliant="false" />
      <hw:geometry form-language="geometric" proportional-system="root2"
                   mathematical-basis="golden-ratio" symmetry="radial" />
      <hw:material surface="glass" depth="shallow" />
    </hw:aesthetic>
    <hw:reasoning>
      <hw:intent>HyperWeave stacked lockup, Primer porcelain colorway — fired white
        glaze, cobalt underglaze — the editorial default.</hw:intent>
      <hw:approach>Identity and motion held constant; a depth pass adds a faceted
        octahedron volume (lit top to shadow bottom via a userSpace vertical gradient
        over the four faces), a translucent glass core, a soft back-glow plane, and a
        transmitter highlight that runs white at the crown to shadow at the base —
        giving the wireframe dimensional layering instead of a flat plane. Palette
        swapped to the Primer porcelain tokens.</hw:approach>
      <hw:tradeoffs>Earlier mark read flat and rigid; added translucent
        volume/glass/glow LAYERS for depth while keeping the crisp octahedral geometry
        rather than rounding it, so the precision identity holds. Light variants stay on
        a transparent field; dark variants carry their flat surface_0 since their bright
        accents require a dark ground to read. Fills derive from the variant accent so
        they stay tonally unified, never the muddy multi-hue wash of the prior flux
        faces.</hw:tradeoffs><hw:spatial-notes>604x676 (1.12:1), ~36px balanced margins.
        Axis of symmetry x=302. Octahedral complex centered (302,238) at scale 2.42;
        vertices r=80 local; faceted faces shaded on a vertical light(-80)->dark(+80)
        gradient for volume; transmitter glass fill -60..60; inner highlight
        crown-to-base on a 0.93-scaled concentric path. Five connection nodes (4
        vertices r=3.5 + center r=4). Wordmark cap 52px baseline 562; subtitle slots
        606/640.</hw:spatial-notes>
    </hw:reasoning>
    <hw:stratum>
      <hw:ring primary="005-COSMIC" />
      <hw:affinities>
        <hw:resonance ring="002-TRIBE" strength="0.7" />
      </hw:affinities>
    </hw:stratum>
  </metadata>
  <defs>
    <linearGradient id="ramp" x1="0%" y1="0%" x2="100%" y2="100%">
      <stop offset="0%" stop-color="#5C80E3" />
      <stop offset="50%" stop-color="#1D4ED8" />
      <stop offset="100%" stop-color="#1E40A0" />
    </linearGradient>
    <linearGradient id="wm" gradientUnits="userSpaceOnUse" x1="34.6" y1="0" x2="569.5"
                    y2="0">
      <stop offset="0%" stop-color="#2D5EE0" />
      <stop offset="50%" stop-color="#1D4ED8" />
      <stop offset="100%" stop-color="#1E40A0" />
    </linearGradient>
    <radialGradient id="nodeM" cx="40%" cy="36%" r="62%">
      <stop offset="0%" stop-color="#BCCBF2" />
      <stop offset="50%" stop-color="#4D7AE8" />
      <stop offset="100%" stop-color="#1E40A0" />
    </radialGradient>
    <linearGradient id="subGrad" x1="0" y1="0" x2="1" y2="0">
      <stop offset="0%" stop-color="#5C7C9E" />
      <stop offset="100%" stop-color="#6E88B0" />
    </linearGradient>
    <radialGradient id="backGlow" gradientUnits="userSpaceOnUse" cx="0" cy="0" r="86">
      <stop offset="0%" stop-color="#1D4ED8" stop-opacity="0.10" />
      <stop offset="55%" stop-color="#1D4ED8" stop-opacity="0.035" />
      <stop offset="100%" stop-color="#1D4ED8" stop-opacity="0" />
    </radialGradient>
    <linearGradient id="faceVol" gradientUnits="userSpaceOnUse" x1="0" y1="-80" x2="0"
                    y2="80">
      <stop offset="0%" stop-color="#1D4ED8" stop-opacity="0.26" />
      <stop offset="100%" stop-color="#1D4ED8" stop-opacity="0.05" />
    </linearGradient>
    <linearGradient id="glassFill" gradientUnits="userSpaceOnUse" x1="0" y1="-60" x2="0"
                    y2="60">
      <stop offset="0%" stop-color="#1D4ED8" stop-opacity="0.18" />
      <stop offset="100%" stop-color="#1D4ED8" stop-opacity="0.06" />
    </linearGradient>
    <linearGradient id="innerLight" gradientUnits="userSpaceOnUse" x1="0" y1="-56"
                    x2="0" y2="56">
      <stop offset="0%" stop-color="#ffffff" stop-opacity="0.7" />
      <stop offset="44%" stop-color="#ffffff" stop-opacity="0.06" />
      <stop offset="56%" stop-color="#1E40A0" stop-opacity="0.06" />
      <stop offset="100%" stop-color="#1E40A0" stop-opacity="0.5" />
    </linearGradient>
    <filter id="softShadow" x="-50%" y="-50%" width="200%" height="200%">
      <feGaussianBlur in="SourceAlpha" stdDeviation="2.2" />
      <feOffset dx="1.2" dy="1.8" result="o" />
      <feFlood flood-color="#1E3A5F" flood-opacity="0.22" />
      <feComposite in2="o" operator="in" />
      <feMerge>
        <feMergeNode />
        <feMergeNode in="SourceGraphic" />
      </feMerge>
    </filter>
    <filter id="waveFilter" x="-50%" y="-50%" width="200%" height="200%">
      <feTurbulence type="fractalNoise" baseFrequency="0" numOctaves="3" result="noise"
                    seed="42">
        <animate attributeName="baseFrequency" values="0.05;0" dur="2.4s" begin="0s"
                 fill="freeze" />
      </feTurbulence>
      <feDisplacementMap in="SourceGraphic" in2="noise" scale="0" xChannelSelector="R"
                         yChannelSelector="G">
        <animate id="waveCollapse" attributeName="scale" values="20;0" dur="2.4s"
                 begin="0s" fill="freeze" />
      </feDisplacementMap>
    </filter>
  </defs>
  <style>
    svg {
      color-scheme: light dark
    }

    .word-rise,
    .sub {
      will-change: opacity
    }

    @keyframes fade {
      from {
        opacity: 0
      }

      to {
        opacity: var(--o, 1)
      }
    }

    .word-rise {
      animation: fade .8s ease 1.0s both
    }

    .sub1 {
      --o: .95;
      animation: fade .6s ease 1.3s both
    }

    .sub2 {
      --o: .72;
      animation: fade .6s ease 1.5s both
    }

    @media (prefers-reduced-motion:reduce) {

      .word-rise,
      .sub {
        animation: none !important;
        opacity: 1
      }

      .sub1 {
        opacity: .95
      }

      .sub2 {
        opacity: .72
      }
    }

    @media (forced-colors:active) {
      .wfill {
        fill: CanvasText
      }
    }
  </style><!-- bare transparent field -->
  <g transform="translate(302, 238) scale(2.42)" filter="url(#waveFilter)">
    <circle cx="0" cy="0" r="80" fill="url(#backGlow)" />
    <g fill="url(#faceVol)">
      <path d="M0,-80 L80,0 L0,0 Z" />
      <path d="M0,-80 L0,0 L-80,0 Z" />
      <path d="M0,80 L80,0 L0,0 Z" />
      <path d="M0,80 L0,0 L-80,0 Z" />
    </g>
    <path d="M -15,-60 L -45,-30 C -60,-15 -60,15 -45,30 L -15,60 L 15,60 L 45,30 C 60,15 60,-15 45,-30 L 15,-60 Z"
          fill="url(#glassFill)" />
    <g stroke="url(#ramp)" stroke-width="2.5" opacity="0.95" stroke-linecap="round">
      <line x1="0" y1="-80" x2="80" y2="0" />
      <line x1="0" y1="-80" x2="0" y2="0" />
      <line x1="0" y1="-80" x2="-80" y2="0" />
      <line x1="0" y1="80" x2="80" y2="0" />
      <line x1="0" y1="80" x2="0" y2="0" />
      <line x1="0" y1="80" x2="-80" y2="0" />
      <line x1="80" y1="0" x2="0" y2="0" />
      <line x1="-80" y1="0" x2="0" y2="0" />
    </g>
    <path d="M -15,-60 L -45,-30 C -60,-15 -60,15 -45,30 L -15,60 L 15,60 L 45,30 C 60,15 60,-15 45,-30 L 15,-60 Z"
          fill="none" stroke="url(#ramp)" stroke-width="9" stroke-linejoin="round"
          stroke-linecap="round" filter="url(#softShadow)" opacity="0.96">
      <animate attributeName="stroke-width" values="9;10.4;9" dur="2.618s"
               begin="waveCollapse.end + 0.2s" repeatCount="indefinite"
               calcMode="spline" keySplines="0.4 0 0.2 1; 0.4 0 0.2 1" />
    </path>
    <path d="M-13.95,-55.8 L-41.85,-27.9 C-55.8,-13.95 -55.8,13.95 -41.85,27.9 L-13.95,55.8 L13.95,55.8 L41.85,27.9 C55.8,13.95 55.8,-13.95 41.85,-27.9 L13.95,-55.8 Z"
          fill="none" stroke="url(#innerLight)" stroke-width="1.5"
          stroke-linejoin="round" stroke-linecap="round" />
    <g class="nodes">
      <circle cx="0" cy="-80" r="3.5" fill="url(#nodeM)" />
      <circle cx="80" cy="0" r="3.5" fill="url(#nodeM)" />
      <circle cx="0" cy="80" r="3.5" fill="url(#nodeM)" />
      <circle cx="-80" cy="0" r="3.5" fill="url(#nodeM)" />
      <g>
        <animateTransform attributeName="transform" type="scale" values="1;1.09;1"
                          dur="3.236s" begin="waveCollapse.end" repeatCount="indefinite"
                          calcMode="spline" keySplines="0.4 0 0.2 1;0.4 0 0.2 1" />
        <circle cx="0" cy="0" r="4" fill="url(#nodeM)" />
      </g>
    </g>
  </g>
  <g class="word-rise">
    <path class="wfill"
          d="M 38.72,562.00 L 38.72,510.00 L 47.38,510.00 L 47.38,531.60 L 83.21,531.60 L 83.21,510.00 L 91.87,510.00 L 91.87,562.00 L 83.21,562.00 L 83.21,540.40 L 47.38,540.40 L 47.38,562.00 L 38.72,562.00 Z M 106.24,577.74 L 106.24,577.74 L 106.24,569.08 L 131.75,569.08 Q 132.24,569.08 132.63,568.68 Q 133.04,568.28 133.04,567.78 L 133.04,562.00 L 108.76,562.00 Q 106.17,562.00 103.97,560.67 Q 101.77,559.33 100.43,557.16 Q 99.09,554.99 99.09,552.32 L 99.09,520.26 L 107.68,520.26 L 107.68,552.03 Q 107.68,552.61 108.08,553.01 Q 108.48,553.40 109.06,553.40 L 131.75,553.40 Q 132.24,553.40 132.63,553.01 Q 133.04,552.61 133.04,552.03 L 133.04,520.26 L 141.63,520.26 L 141.63,568.07 Q 141.63,570.81 140.36,572.98 Q 139.10,575.14 136.90,576.44 Q 134.70,577.74 132.03,577.74 L 106.24,577.74 Z M 149.44,578.61 L 149.44,578.61 L 149.44,520.11 L 182.37,520.11 Q 184.96,520.11 187.16,521.45 Q 189.37,522.78 190.67,524.95 Q 191.97,527.12 191.97,529.80 L 191.97,552.32 Q 191.97,554.99 190.67,557.16 Q 189.37,559.33 187.16,560.67 Q 184.96,562.00 182.37,562.00 L 158.03,562.00 L 158.03,578.61 L 149.44,578.61 Z M 159.40,553.40 L 182.07,553.40 Q 182.58,553.40 182.97,553.01 Q 183.38,552.61 183.38,552.03 L 183.38,530.08 Q 183.38,529.50 182.97,529.10 Q 182.58,528.71 182.07,528.71 L 159.40,528.71 Q 158.89,528.71 158.45,529.10 Q 158.03,529.50 158.03,530.08 L 158.03,552.03 Q 158.03,552.61 158.45,553.01 Q 158.89,553.40 159.40,553.40 Z M 206.85,562.00 Q 204.18,562.00 202.01,560.67 Q 199.84,559.33 198.50,557.16 Q 197.16,554.99 197.16,552.32 L 197.16,529.80 Q 197.16,527.12 198.50,524.95 Q 199.84,522.78 202.01,521.45 Q 204.18,520.11 206.85,520.11 L 230.03,520.11 Q 232.78,520.11 234.95,521.45 Q 237.12,522.78 238.41,524.95 Q 239.71,527.12 239.71,529.80 L 239.71,545.39 L 205.77,545.39 L 205.77,552.03 Q 205.77,552.61 206.16,553.01 Q 206.55,553.40 207.15,553.40 L 239.71,553.40 L 239.71,562.00 L 206.85,562.00 L 206.85,562.00 Z M 205.77,537.51 L 231.11,537.51 L 231.11,530.08 Q 231.11,529.50 230.72,529.10 Q 230.32,528.71 229.74,528.71 L 207.15,528.71 Q 206.55,528.71 206.16,529.10 Q 205.77,529.50 205.77,530.08 L 205.77,537.51 Z M 247.22,562.00 L 247.22,562.00 L 247.22,529.80 Q 247.22,527.12 248.56,524.95 Q 249.90,522.78 252.10,521.45 Q 254.30,520.11 256.89,520.11 L 280.24,520.11 L 280.24,528.71 L 257.19,528.71 Q 256.61,528.71 256.21,529.10 Q 255.81,529.50 255.81,530.08 L 255.81,562.00 L 247.22,562.00 Z M 302.40,562.00 L 302.40,562.00 L 283.48,510.00 L 292.72,510.00 L 305.87,546.05 L 319.01,510.00 L 327.83,510.00 L 341.04,546.05 L 354.19,510.00 L 363.43,510.00 L 344.51,562.00 L 337.50,562.00 L 323.42,523.36 L 309.33,562.00 L 302.40,562.00 Z M 379.46,562.00 Q 376.79,562.00 374.62,560.67 Q 372.46,559.33 371.11,557.16 Q 369.78,554.99 369.78,552.32 L 369.78,529.80 Q 369.78,527.12 371.11,524.95 Q 372.46,522.78 374.62,521.45 Q 376.79,520.11 379.46,520.11 L 402.64,520.11 Q 405.40,520.11 407.56,521.45 Q 409.73,522.78 411.02,524.95 Q 412.32,527.12 412.32,529.80 L 412.32,545.39 L 378.38,545.39 L 378.38,552.03 Q 378.38,552.61 378.78,553.01 Q 379.17,553.40 379.76,553.40 L 412.32,553.40 L 412.32,562.00 L 379.46,562.00 L 379.46,562.00 Z M 378.38,537.51 L 403.72,537.51 L 403.72,530.08 Q 403.72,529.50 403.33,529.10 Q 402.93,528.71 402.36,528.71 L 379.76,528.71 Q 379.17,528.71 378.78,529.10 Q 378.38,529.50 378.38,530.08 L 378.38,537.51 Z M 429.50,562.00 Q 426.85,562.00 424.63,560.67 Q 422.43,559.33 421.13,557.16 Q 419.83,554.99 419.83,552.32 L 419.83,536.72 L 453.78,536.72 L 453.78,530.08 Q 453.78,529.50 453.37,529.10 Q 452.98,528.71 452.41,528.71 L 419.83,528.71 L 419.83,520.11 L 452.69,520.11 Q 455.44,520.11 457.61,521.45 Q 459.77,522.78 461.07,524.95 Q 462.37,527.12 462.37,529.80 L 462.37,562.00 L 429.50,562.00 Z M 429.80,553.40 L 453.78,553.40 L 453.78,544.60 L 428.42,544.60 L 428.42,552.03 Q 428.42,552.61 428.82,553.01 Q 429.22,553.40 429.80,553.40 Z M 490.76,562.00 L 490.76,562.00 L 467.71,520.11 L 477.69,520.11 L 494.94,551.82 L 512.21,520.11 L 522.17,520.11 L 499.00,562.00 L 490.76,562.00 Z M 536.62,562.00 Q 533.94,562.00 531.78,560.67 Q 529.61,559.33 528.27,557.16 Q 526.93,554.99 526.93,552.32 L 526.93,529.80 Q 526.93,527.12 528.27,524.95 Q 529.61,522.78 531.78,521.45 Q 533.94,520.11 536.62,520.11 L 559.79,520.11 Q 562.55,520.11 564.72,521.45 Q 566.88,522.78 568.18,524.95 Q 569.48,527.12 569.48,529.80 L 569.48,545.39 L 535.53,545.39 L 535.53,552.03 Q 535.53,552.61 535.93,553.01 Q 536.32,553.40 536.91,553.40 L 569.48,553.40 L 569.48,562.00 L 536.62,562.00 L 536.62,562.00 Z M 535.53,537.51 L 560.88,537.51 L 560.88,530.08 Q 560.88,529.50 560.49,529.10 Q 560.09,528.71 559.51,528.71 L 536.91,528.71 Q 536.32,528.71 535.93,529.10 Q 535.53,529.50 535.53,530.08 L 535.53,537.51 Z"
          fill="url(#wm)" />
  </g>
  <g class="sub sub1" opacity="0">
    <path class="wfill"
          d="M 80.25,606.00 L 78.87,593.19 L 80.57,593.19 L 81.43,602.39 Q 81.47,602.74 81.49,603.16 Q 81.52,603.58 81.54,603.98 Q 81.57,604.39 81.57,604.68 Q 81.61,604.39 81.64,603.98 Q 81.67,603.58 81.72,603.16 Q 81.76,602.74 81.82,602.39 L 82.92,593.19 L 84.68,593.19 L 85.71,602.39 Q 85.75,602.74 85.79,603.16 Q 85.83,603.58 85.89,603.98 Q 85.94,604.39 85.96,604.68 Q 85.97,604.39 86.00,603.98 Q 86.03,603.58 86.06,603.16 Q 86.10,602.74 86.13,602.39 L 87.01,593.19 L 88.66,593.19 L 87.22,606.00 L 85.03,606.00 L 83.99,596.68 Q 83.96,596.31 83.92,595.90 Q 83.89,595.49 83.85,595.09 Q 83.82,594.70 83.78,594.44 Q 83.76,594.70 83.73,595.09 Q 83.69,595.49 83.66,595.90 Q 83.62,596.31 83.57,596.68 L 82.46,606.00 L 80.25,606.00 Z M 98.24,606.00 L 98.24,593.19 L 100.13,593.19 L 100.13,598.49 L 103.89,598.49 L 103.89,593.19 L 105.78,593.19 L 105.78,606.00 L 103.89,606.00 L 103.89,600.24 L 100.13,600.24 L 100.13,606.00 L 98.24,606.00 Z M 116.65,606.00 L 116.65,593.19 L 124.17,593.19 L 124.17,594.87 L 118.51,594.87 L 118.51,598.51 L 123.56,598.51 L 123.56,600.17 L 118.51,600.17 L 118.51,604.32 L 124.17,604.32 L 124.17,606.00 L 116.65,606.00 Z M 134.72,606.00 L 134.72,593.19 L 138.74,593.19 Q 139.95,593.19 140.84,593.66 Q 141.74,594.12 142.24,594.97 Q 142.73,595.81 142.73,596.95 Q 142.73,598.23 142.08,599.17 Q 141.42,600.11 140.30,600.49 L 142.91,606.00 L 140.75,606.00 L 138.42,600.74 L 136.61,600.74 L 136.61,606.00 L 134.72,606.00 Z M 136.61,599.07 L 138.74,599.07 Q 139.68,599.07 140.24,598.50 Q 140.80,597.93 140.80,596.98 Q 140.80,596.00 140.24,595.44 Q 139.68,594.87 138.74,594.87 L 136.61,594.87 L 136.61,599.07 Z M 153.14,606.00 L 153.14,593.19 L 160.67,593.19 L 160.67,594.87 L 155.00,594.87 L 155.00,598.51 L 160.05,598.51 L 160.05,600.17 L 155.00,600.17 L 155.00,604.32 L 160.67,604.32 L 160.67,606.00 L 153.14,606.00 Z M 191.99,606.00 L 188.74,593.19 L 190.69,593.19 L 192.74,601.72 Q 192.94,602.47 193.09,603.22 Q 193.24,603.97 193.30,604.39 Q 193.38,603.97 193.51,603.22 Q 193.64,602.47 193.83,601.70 L 195.87,593.19 L 197.76,593.19 L 194.50,606.00 L 191.99,606.00 Z M 207.89,606.00 L 207.89,593.19 L 215.41,593.19 L 215.41,594.87 L 209.75,594.87 L 209.75,598.51 L 214.80,598.51 L 214.80,600.17 L 209.75,600.17 L 209.75,604.32 L 215.41,604.32 L 215.41,606.00 L 207.89,606.00 Z M 229.82,606.18 Q 228.62,606.18 227.74,605.73 Q 226.85,605.28 226.37,604.43 Q 225.89,603.58 225.89,602.44 L 225.89,596.75 Q 225.89,595.60 226.37,594.75 Q 226.85,593.91 227.74,593.46 Q 228.62,593.02 229.82,593.02 Q 231.01,593.02 231.89,593.47 Q 232.77,593.93 233.25,594.76 Q 233.73,595.60 233.73,596.75 L 231.84,596.75 Q 231.84,595.75 231.31,595.22 Q 230.79,594.70 229.82,594.70 Q 228.86,594.70 228.32,595.22 Q 227.78,595.75 227.78,596.74 L 227.78,602.44 Q 227.78,603.42 228.32,603.96 Q 228.86,604.49 229.82,604.49 Q 230.79,604.49 231.31,603.96 Q 231.84,603.42 231.84,602.44 L 233.73,602.44 Q 233.73,603.58 233.25,604.42 Q 232.77,605.26 231.89,605.72 Q 231.01,606.18 229.82,606.18 Z M 247.05,606.00 L 247.05,594.93 L 243.63,594.93 L 243.63,593.18 L 252.37,593.18 L 252.37,594.93 L 248.95,594.93 L 248.95,606.00 L 247.05,606.00 Z M 266.24,606.18 Q 265.05,606.18 264.18,605.73 Q 263.31,605.28 262.85,604.43 Q 262.38,603.58 262.38,602.44 L 262.38,596.75 Q 262.38,595.60 262.85,594.75 Q 263.31,593.91 264.18,593.46 Q 265.05,593.02 266.24,593.02 Q 267.44,593.02 268.31,593.46 Q 269.17,593.91 269.64,594.75 Q 270.10,595.60 270.10,596.74 L 270.10,602.44 Q 270.10,603.58 269.64,604.43 Q 269.17,605.28 268.31,605.73 Q 267.44,606.18 266.24,606.18 Z M 266.24,604.49 Q 267.21,604.49 267.71,603.96 Q 268.21,603.42 268.21,602.44 L 268.21,596.75 Q 268.21,595.75 267.71,595.22 Q 267.21,594.70 266.24,594.70 Q 265.30,594.70 264.79,595.22 Q 264.28,595.75 264.28,596.75 L 264.28,602.44 Q 264.28,603.42 264.79,603.96 Q 265.30,604.49 266.24,604.49 Z M 280.70,606.00 L 280.70,593.19 L 284.72,593.19 Q 285.93,593.19 286.83,593.66 Q 287.72,594.12 288.22,594.97 Q 288.72,595.81 288.72,596.95 Q 288.72,598.23 288.06,599.17 Q 287.40,600.11 286.28,600.49 L 288.90,606.00 L 286.74,606.00 L 284.40,600.74 L 282.60,600.74 L 282.60,606.00 L 280.70,606.00 Z M 282.60,599.07 L 284.72,599.07 Q 285.67,599.07 286.23,598.50 Q 286.79,597.93 286.79,596.98 Q 286.79,596.00 286.23,595.44 Q 285.67,594.87 284.72,594.87 L 282.60,594.87 L 282.60,599.07 Z M 302.79,606.18 Q 301.50,606.18 300.56,605.75 Q 299.64,605.31 299.12,604.52 Q 298.62,603.72 298.62,602.61 L 300.49,602.61 Q 300.49,603.49 301.11,603.99 Q 301.72,604.49 302.81,604.49 Q 303.83,604.49 304.41,604.00 Q 304.99,603.51 304.99,602.65 Q 304.99,601.93 304.59,601.40 Q 304.20,600.88 303.46,600.68 L 301.85,600.21 Q 300.44,599.81 299.68,598.83 Q 298.92,597.86 298.92,596.51 Q 298.92,595.46 299.39,594.67 Q 299.86,593.88 300.74,593.44 Q 301.62,593.00 302.81,593.00 Q 304.57,593.00 305.63,593.95 Q 306.69,594.89 306.70,596.49 L 304.81,596.49 Q 304.81,595.65 304.28,595.17 Q 303.74,594.68 302.78,594.68 Q 301.85,594.68 301.32,595.13 Q 300.79,595.58 300.79,596.38 Q 300.79,597.10 301.19,597.63 Q 301.58,598.16 302.32,598.37 L 303.95,598.86 Q 305.36,599.24 306.11,600.23 Q 306.86,601.21 306.86,602.58 Q 306.86,603.65 306.35,604.46 Q 305.85,605.28 304.93,605.73 Q 304.02,606.18 302.79,606.18 Z M 335.13,606.00 L 335.13,593.19 L 337.47,593.19 L 338.75,597.30 Q 338.94,597.88 339.08,598.41 Q 339.22,598.95 339.27,599.21 Q 339.34,598.95 339.47,598.41 Q 339.60,597.88 339.78,597.30 L 341.01,593.19 L 343.34,593.19 L 343.34,606.00 L 341.55,606.00 L 341.55,601.69 Q 341.55,600.86 341.60,599.85 Q 341.64,598.84 341.73,597.82 Q 341.82,596.79 341.90,595.85 Q 341.99,594.91 342.06,594.21 L 340.17,600.44 L 338.34,600.44 L 336.41,594.21 Q 336.50,594.89 336.59,595.80 Q 336.68,596.70 336.75,597.72 Q 336.82,598.73 336.87,599.76 Q 336.92,600.79 336.92,601.69 L 336.92,606.00 L 335.13,606.00 Z M 353.87,606.00 L 353.87,593.19 L 361.40,593.19 L 361.40,594.87 L 355.73,594.87 L 355.73,598.51 L 360.78,598.51 L 360.78,600.17 L 355.73,600.17 L 355.73,604.32 L 361.40,604.32 L 361.40,606.00 L 353.87,606.00 Z M 372.12,606.00 L 372.12,593.19 L 379.65,593.19 L 379.65,594.87 L 373.98,594.87 L 373.98,598.51 L 379.03,598.51 L 379.03,600.17 L 373.98,600.17 L 373.98,604.32 L 379.65,604.32 L 379.65,606.00 L 372.12,606.00 Z M 393.03,606.00 L 393.03,594.93 L 389.61,594.93 L 389.61,593.18 L 398.35,593.18 L 398.35,594.93 L 394.93,594.93 L 394.93,606.00 L 393.03,606.00 Z M 429.21,606.00 L 425.97,593.19 L 427.92,593.19 L 429.97,601.72 Q 430.16,602.47 430.31,603.22 Q 430.46,603.97 430.53,604.39 Q 430.60,603.97 430.73,603.22 Q 430.86,602.47 431.06,601.70 L 433.09,593.19 L 434.99,593.19 L 431.72,606.00 L 429.21,606.00 Z M 445.18,606.00 L 445.18,604.32 L 447.76,604.32 L 447.76,594.87 L 445.18,594.87 L 445.18,593.19 L 452.27,593.19 L 452.27,594.87 L 449.69,594.87 L 449.69,604.32 L 452.27,604.32 L 452.27,606.00 L 445.18,606.00 Z M 467.03,606.18 Q 465.73,606.18 464.80,605.75 Q 463.87,605.31 463.36,604.52 Q 462.85,603.72 462.85,602.61 L 464.73,602.61 Q 464.73,603.49 465.34,603.99 Q 465.96,604.49 467.05,604.49 Q 468.06,604.49 468.64,604.00 Q 469.22,603.51 469.22,602.65 Q 469.22,601.93 468.82,601.40 Q 468.43,600.88 467.69,600.68 L 466.08,600.21 Q 464.68,599.81 463.91,598.83 Q 463.15,597.86 463.15,596.51 Q 463.15,595.46 463.62,594.67 Q 464.09,593.88 464.97,593.44 Q 465.85,593.00 467.05,593.00 Q 468.80,593.00 469.86,593.95 Q 470.92,594.89 470.94,596.49 L 469.04,596.49 Q 469.04,595.65 468.51,595.17 Q 467.97,594.68 467.01,594.68 Q 466.08,594.68 465.55,595.13 Q 465.03,595.58 465.03,596.38 Q 465.03,597.10 465.42,597.63 Q 465.82,598.16 466.55,598.37 L 468.19,598.86 Q 469.59,599.24 470.34,600.23 Q 471.10,601.21 471.10,602.58 Q 471.10,603.65 470.59,604.46 Q 470.08,605.28 469.17,605.73 Q 468.25,606.18 467.03,606.18 Z M 481.68,606.00 L 481.68,604.32 L 484.26,604.32 L 484.26,594.87 L 481.68,594.87 L 481.68,593.19 L 488.77,593.19 L 488.77,594.87 L 486.19,594.87 L 486.19,604.32 L 488.77,604.32 L 488.77,606.00 L 481.68,606.00 Z M 503.47,606.18 Q 502.28,606.18 501.41,605.73 Q 500.54,605.28 500.07,604.43 Q 499.61,603.58 499.61,602.44 L 499.61,596.75 Q 499.61,595.60 500.07,594.75 Q 500.54,593.91 501.41,593.46 Q 502.28,593.02 503.47,593.02 Q 504.66,593.02 505.53,593.46 Q 506.40,593.91 506.86,594.75 Q 507.33,595.60 507.33,596.74 L 507.33,602.44 Q 507.33,603.58 506.86,604.43 Q 506.40,605.28 505.53,605.73 Q 504.66,606.18 503.47,606.18 Z M 503.47,604.49 Q 504.43,604.49 504.93,603.96 Q 505.43,603.42 505.43,602.44 L 505.43,596.75 Q 505.43,595.75 504.93,595.22 Q 504.43,594.70 503.47,594.70 Q 502.52,594.70 502.01,595.22 Q 501.50,595.75 501.50,596.75 L 501.50,602.44 Q 501.50,603.42 502.01,603.96 Q 502.52,604.49 503.47,604.49 Z M 517.87,606.00 L 517.87,593.19 L 520.26,593.19 L 524.00,603.84 Q 523.96,603.33 523.91,602.63 Q 523.86,601.93 523.83,601.17 Q 523.81,600.42 523.81,599.81 L 523.81,593.19 L 525.56,593.19 L 525.56,606.00 L 523.17,606.00 L 519.45,595.35 Q 519.49,595.81 519.53,596.49 Q 519.58,597.17 519.60,597.91 Q 519.63,598.65 519.63,599.28 L 519.63,606.00 L 517.87,606.00 Z"
          fill="url(#subGrad)" />
  </g>
  <g class="sub sub2" opacity="0">
    <path class="wfill"
          d="M 193.35,640.00 L 193.35,638.58 L 195.54,638.58 L 195.54,630.59 L 193.35,630.59 L 193.35,629.16 L 199.35,629.16 L 199.35,630.59 L 197.17,630.59 L 197.17,638.58 L 199.35,638.58 L 199.35,640.00 L 193.35,640.00 Z M 209.43,640.00 L 209.43,629.16 L 211.45,629.16 L 214.62,638.17 Q 214.59,637.74 214.54,637.15 Q 214.50,636.56 214.47,635.92 Q 214.45,635.28 214.45,634.76 L 214.45,629.16 L 215.94,629.16 L 215.94,640.00 L 213.92,640.00 L 210.77,630.99 Q 210.80,631.38 210.84,631.95 Q 210.87,632.53 210.90,633.16 Q 210.92,633.78 210.92,634.31 L 210.92,640.00 L 209.43,640.00 Z M 225.76,640.00 L 225.76,629.16 L 227.78,629.16 L 230.95,638.17 Q 230.92,637.74 230.87,637.15 Q 230.83,636.56 230.81,635.92 Q 230.79,635.28 230.79,634.76 L 230.79,629.16 L 232.27,629.16 L 232.27,640.00 L 230.25,640.00 L 227.10,630.99 Q 227.13,631.38 227.17,631.95 Q 227.21,632.53 227.23,633.16 Q 227.25,633.78 227.25,634.31 L 227.25,640.00 L 225.76,640.00 Z M 242.29,640.00 L 242.29,629.16 L 248.66,629.16 L 248.66,630.59 L 243.86,630.59 L 243.86,633.66 L 248.14,633.66 L 248.14,635.07 L 243.86,635.07 L 243.86,638.58 L 248.66,638.58 L 248.66,640.00 L 242.29,640.00 Z M 258.47,640.00 L 258.47,629.16 L 261.87,629.16 Q 262.90,629.16 263.65,629.56 Q 264.41,629.95 264.83,630.66 Q 265.26,631.38 265.26,632.34 Q 265.26,633.42 264.70,634.22 Q 264.14,635.01 263.19,635.34 L 265.41,640.00 L 263.58,640.00 L 261.61,635.55 L 260.08,635.55 L 260.08,640.00 L 258.47,640.00 Z M 260.08,634.14 L 261.87,634.14 Q 262.67,634.14 263.15,633.65 Q 263.62,633.17 263.62,632.37 Q 263.62,631.54 263.15,631.06 Q 262.67,630.59 261.87,630.59 L 260.08,630.59 L 260.08,634.14 Z M 274.20,640.00 L 276.96,629.16 L 279.06,629.16 L 281.83,640.00 L 280.21,640.00 L 279.56,637.25 L 276.48,637.25 L 275.83,640.00 L 274.20,640.00 Z M 276.78,635.93 L 279.24,635.93 L 278.50,632.80 Q 278.31,631.97 278.18,631.35 Q 278.06,630.73 278.01,630.51 Q 277.97,630.73 277.85,631.35 Q 277.73,631.97 277.52,632.79 L 276.78,635.93 Z M 294.34,640.15 Q 292.78,640.15 291.94,639.29 Q 291.09,638.44 291.09,636.97 L 291.09,629.16 L 292.70,629.16 L 292.70,636.97 Q 292.70,637.79 293.10,638.26 Q 293.51,638.74 294.34,638.74 Q 295.16,638.74 295.58,638.26 Q 295.99,637.79 295.99,636.97 L 295.99,629.16 L 297.60,629.16 L 297.60,636.97 Q 297.60,638.44 296.75,639.29 Q 295.90,640.15 294.34,640.15 Z M 307.47,640.00 L 307.47,629.16 L 310.87,629.16 Q 311.89,629.16 312.65,629.56 Q 313.41,629.95 313.83,630.66 Q 314.25,631.38 314.25,632.34 Q 314.25,633.42 313.69,634.22 Q 313.14,635.01 312.19,635.34 L 314.40,640.00 L 312.57,640.00 L 310.60,635.55 L 309.07,635.55 L 309.07,640.00 L 307.47,640.00 Z M 309.07,634.14 L 310.87,634.14 Q 311.67,634.14 312.14,633.65 Q 312.62,633.17 312.62,632.37 Q 312.62,631.54 312.14,631.06 Q 311.67,630.59 310.87,630.59 L 309.07,630.59 L 309.07,634.14 Z M 323.19,640.00 L 325.95,629.16 L 328.06,629.16 L 330.82,640.00 L 329.20,640.00 L 328.55,637.25 L 325.48,637.25 L 324.82,640.00 L 323.19,640.00 Z M 325.77,635.93 L 328.24,635.93 L 327.50,632.80 Q 327.30,631.97 327.18,631.35 Q 327.05,630.73 327.01,630.51 Q 326.96,630.73 326.84,631.35 Q 326.72,631.97 326.52,632.79 L 325.77,635.93 Z M 356.83,640.00 L 356.83,629.16 L 358.44,629.16 L 358.44,638.53 L 363.17,638.53 L 363.17,640.00 L 356.83,640.00 Z M 372.18,640.00 L 374.95,629.16 L 377.05,629.16 L 379.82,640.00 L 378.20,640.00 L 377.55,637.25 L 374.47,637.25 L 373.82,640.00 L 372.18,640.00 Z M 374.77,635.93 L 377.23,635.93 L 376.49,632.80 Q 376.30,631.97 376.17,631.35 Q 376.04,630.73 376.00,630.51 Q 375.96,630.73 375.84,631.35 Q 375.72,631.97 375.51,632.79 L 374.77,635.93 Z M 389.14,640.00 L 389.14,629.16 L 392.33,629.16 Q 393.88,629.16 394.75,629.90 Q 395.63,630.65 395.63,631.95 Q 395.63,632.70 395.31,633.24 Q 394.99,633.78 394.42,634.07 Q 393.86,634.37 393.10,634.37 L 393.10,634.22 Q 393.92,634.21 394.54,634.53 Q 395.17,634.85 395.52,635.47 Q 395.88,636.10 395.88,636.96 Q 395.88,637.88 395.47,638.57 Q 395.07,639.26 394.31,639.63 Q 393.56,640.00 392.54,640.00 L 389.14,640.00 Z M 390.70,638.62 L 392.41,638.62 Q 393.27,638.62 393.77,638.16 Q 394.28,637.70 394.28,636.88 Q 394.28,636.05 393.77,635.55 Q 393.27,635.04 392.41,635.04 L 390.70,635.04 L 390.70,638.62 Z M 390.70,633.70 L 392.32,633.70 Q 393.12,633.70 393.58,633.27 Q 394.04,632.84 394.04,632.12 Q 394.04,631.39 393.58,630.97 Q 393.12,630.54 392.33,630.54 L 390.70,630.54 L 390.70,633.70 Z M 408.71,640.15 Q 407.61,640.15 406.82,639.78 Q 406.04,639.42 405.60,638.75 Q 405.17,638.07 405.17,637.13 L 406.76,637.13 Q 406.76,637.88 407.28,638.30 Q 407.80,638.72 408.72,638.72 Q 409.58,638.72 410.07,638.31 Q 410.56,637.89 410.56,637.17 Q 410.56,636.56 410.23,636.11 Q 409.90,635.66 409.27,635.50 L 407.91,635.10 Q 406.72,634.76 406.07,633.94 Q 405.43,633.11 405.43,631.97 Q 405.43,631.08 405.83,630.41 Q 406.23,629.74 406.97,629.37 Q 407.71,629.00 408.72,629.00 Q 410.21,629.00 411.11,629.80 Q 412.00,630.60 412.02,631.95 L 410.42,631.95 Q 410.42,631.24 409.96,630.83 Q 409.51,630.42 408.69,630.42 Q 407.91,630.42 407.46,630.80 Q 407.02,631.18 407.02,631.86 Q 407.02,632.47 407.35,632.92 Q 407.68,633.36 408.31,633.54 L 409.69,633.96 Q 410.88,634.28 411.51,635.12 Q 412.15,635.95 412.15,637.10 Q 412.15,638.01 411.72,638.70 Q 411.29,639.39 410.52,639.77 Q 409.75,640.15 408.71,640.15 Z"
          fill="url(#subGrad)" />
  </g>
</svg>