<svg xmlns="http://www.w3.org/2000/svg"
     xmlns:hw="https://hyperweave.dev/hw/v8.0"
     role="img"
     aria-labelledby="hw-2a0aa48d-title hw-2a0aa48d-desc"
     viewBox="0 0 64 64"
     width="64" height="64"
     data-hw-id="2a0aa48d-9cf2-4440-b937-1ebbb7d962d8"
     data-hw-type="icon"
     data-hw-frame="icon"
     data-hw-genome="brutalist-emerald"
     data-hw-status="active"
     data-hw-profile="brutalist"
     data-hw-motion="static"
     data-hw-generation="1"
     data-hw-contract="2a0aa48d-9cf2-4440-b937-1ebbb7d962d8"
     data-hw-variant="default"
     data-hw-regime="normal"
     data-hw-glyph="reddit"
     data-hw-chromatic="brutalist-emerald">
  <title id="hw-2a0aa48d-title">reddit</title>
  <desc id="hw-2a0aa48d-desc">A icon artifact, using brutalist-emerald genome.</desc>
  <metadata>
  <hw:artifact id="2a0aa48d-9cf2-4440-b937-1ebbb7d962d8" type="icon" series="core" version="0.1.0"
               xmlns:hw="https://hyperweave.dev/hw/v8.0">
    <hw:provenance>
      <hw:generator>HyperWeave Compositor v0.1 (InnerAura Labs)</hw:generator>
      <hw:created>2026-03-27T22:38:03.153570+00:00</hw:created>
      <hw:human-directed>true</hw:human-directed>
    </hw:provenance>
    <hw:spec size="64x64" performance="composite-only"
             theme="dark" a11y="WCAG-AA" platform="web"/>
  </hw:artifact>
  <hw:composition xmlns:hw="https://hyperweave.dev/hw/v8.0">
    <hw:frame>icon</hw:frame>
    <hw:genome>brutalist-emerald@0.1.0</hw:genome>
    <hw:profile>brutalist</hw:profile>
    <hw:slots>
    </hw:slots>
    <hw:environment platform="web" motion="static" status="active"/>
  </hw:composition>
  <rdf:RDF xmlns:rdf="http://www.w3.org/1999/02/22-rdf-syntax-ns#"
           xmlns:dc="http://purl.org/dc/elements/1.1/">
    <rdf:Description>
      <dc:title>reddit</dc:title>
      <dc:creator>HyperWeave Compositor v0.1 (InnerAura Labs)</dc:creator>
      <dc:date>2026-03-27T22:38:03.153570+00:00</dc:date>
      <dc:rights>CC BY 4.0</dc:rights>
    </rdf:Description>
  </rdf:RDF>
  <hw:aesthetic xmlns:hw="https://hyperweave.dev/hw/v8.0">
    <hw:chromatic system="brutalist-emerald" space="oklch"
                  palette="" contrast-ratio="4.5:1"/>
    <hw:motion vocabulary="static" physics="none"
               timing="phi" duration-base="2.618s"
               stagger-regime="contemplative" cim-compliant="true"/>
    <hw:geometry form-language="geometric" corner-radius="5px"
                 grid="auto" proportional-system="phi"
                 mathematical-basis="golden-ratio" symmetry="bilateral"/>
    <hw:typography stack="" hierarchy="11/18/8"
                   weight-range="500-900" metrics-method="lut"/>
    <hw:material surface="genome-native" depth="deep" texture="none"/>
  </hw:aesthetic>
  <hw:reasoning xmlns:hw="https://hyperweave.dev/hw/v8.0">
    <hw:intent></hw:intent>
    <hw:approach></hw:approach>
    <hw:tradeoffs></hw:tradeoffs>
    <hw:constraints-applied>self-contained, cim-compliant, wcag-aa</hw:constraints-applied>
    <hw:spatial-notes>64x64 (1.00), left-to-right</hw:spatial-notes>
  </hw:reasoning>
</metadata>
  <style>svg, :root {
  --dna-surface: #14532D;
  --dna-surface-alt: #1A3828;
  --dna-surface-deep: #153020;
  --dna-ink-primary: #A7F3D0;
  --dna-ink-muted: #6EE7B7;
  --dna-ink-on-accent: #14532D;
  --dna-ink-bright: #14532D;
  --dna-ink-sub: #6EE7B7;
  --dna-signal: #10B981;
  --dna-signal-dim: #34D399;
  --dna-border: #2A5A3A;
  --dna-border-tint: #1A3A2A;
  --dna-shadow-color: #10B981;
  --dna-shadow-opacity: 0.10;
  --dna-glow: 0px;
  --dna-corner: 0;
  --dna-rhythm-base: 2.618s;
  --dna-bg: #14532D;
  --dna-bg-alt: #1A3828;
  --dna-brand-text: #A7F3D0;
  --dna-sep: #2A5A3A;
  --dna-status-delta-positive: #22C55E;
  --dna-status-delta-negative: #DC2626;
}
/* === HyperWeave Bridge Classes ===
 * Maps semantic class names (hw-*) to genome DNA custom properties (--dna-*).
 * Genome-agnostic: works with ANY genome that defines the --dna-* contract.
 */

/* ── Surface fills ── */
.hw-surface      { fill: var(--dna-surface); }
.hw-surface-deep { fill: var(--dna-surface-deep); }
.hw-bg           { fill: var(--dna-bg); }
.hw-bg-alt       { fill: var(--dna-bg-alt); }

/* ── Signal / Accent ── */
.hw-signal       { fill: var(--dna-signal); }
.hw-signal-stroke { stroke: var(--dna-signal); }
.hw-signal-dim   { fill: var(--dna-signal-dim); }

/* ── Ink / Typography ── */
.hw-ink          { fill: var(--dna-ink-primary); }
.hw-ink-muted    { fill: var(--dna-ink-muted); }
.hw-ink-sub      { fill: var(--dna-ink-sub); }
.hw-ink-bright   { fill: var(--dna-ink-bright); }
.hw-ink-on-accent { fill: var(--dna-ink-on-accent); }

/* ── Border / Separator ── */
.hw-border       { stroke: var(--dna-border); }
.hw-sep          { stroke: var(--dna-sep); }

/* ── Status ── */
.hw-status-pass  { fill: var(--dna-status-passing-core); }
.hw-status-warn  { fill: var(--dna-status-warning-core); }
.hw-status-fail  { fill: var(--dna-status-failing-core); }
.hw-delta-pos    { fill: var(--dna-status-delta-positive); }
.hw-delta-neg    { fill: var(--dna-status-delta-negative); }

/* ── Extended ── */
.hw-glow         { flood-color: var(--dna-glow); }
.hw-brand-text   { fill: var(--dna-brand-text); }
.hw-metric-text  { fill: var(--dna-metric-text); }
.hw-border-tint  { stroke: var(--dna-border-tint); }
.hw-glyph-inner  { fill: var(--dna-glyph-inner); }
.hw-seam-gap     { fill: var(--dna-seam-gap); }
.hw-label-txt    { fill: var(--dna-label-text); }

/* === HyperWeave Accessibility Layer ===
 * Non-negotiable media queries for motion, color scheme, and forced colors.
 * Included in EVERY artifact.
 *
 * CAMO NOTE: @media (prefers-color-scheme) and @media (forced-colors: active)
 * are INERT when served through GitHub Camo as img tags. The img element
 * creates an isolated browsing context — the parent document's color scheme
 * and forced-colors mode do not propagate into it. Artifacts will always
 * render in their default (dark) theme on GitHub READMEs.
 *
 * These queries DO activate when the SVG is embedded directly (svg inline,
 * object, or opened as a standalone document). This is a known accepted
 * tradeoff: dark-default through Camo, adaptive in direct embed.
 */

/* ── Reduced Motion ── */
@media (prefers-reduced-motion: reduce) {
  .hw-logic-bit { animation: none !important; opacity: .8; }
  .hw-scanner { animation: none; opacity: 0; }
  *, *::before, *::after {
    animation-duration: 0.01ms !important;
    animation-iteration-count: 1 !important;
    transition-duration: 0.01ms !important;
  }
  animate, animateTransform, animateMotion, set {
    display: none !important;
  }
}

/* ── Light Mode Override (see CAMO NOTE above — inert through img) ── */
/* Genome-provided light_mode alleles are injected by the CSS assembler
   into a separate @media (prefers-color-scheme: light) block per artifact.
   This placeholder is intentionally empty; it exists as documentation. */

/* ── Forced Colors (Windows High Contrast) ── */
@media (forced-colors: active) {
  text { fill: CanvasText !important; }
  rect, path, circle, ellipse, polygon, polyline, line {
    stroke: CanvasText;
  }
  .hw-frame-bg { fill: Canvas !important; }
  .hw-accent-bar { fill: Highlight !important; }
  .hw-signal { fill: Highlight !important; }
  .hw-logic-bit { fill: Highlight !important; }
}
</style>
  <defs>
  <filter id="hw-2a0aa48d-shadow">
    <feDropShadow dx="0" dy="1" stdDeviation="2"
                  flood-color="var(--dna-shadow-color, #000)"
                  flood-opacity="var(--dna-shadow-opacity, 0.15)"/>
  </filter>
  </defs>


<g filter="url(#hw-2a0aa48d-shadow)">
  <rect width="64" height="64" fill="var(--dna-surface)"/>
  <rect x="0" y="0" width="64" height="4" fill="var(--dna-border)"/>
  <rect x="0" y="4" width="64" height="2" fill="var(--dna-signal)"/>
  <rect x="0" y="0" width="4" height="64" fill="var(--dna-border)"/>
  <rect x="4" y="0" width="2" height="50" fill="var(--dna-signal)"/>
  <g>
    <svg x="20.0" y="16.0" width="24" height="24" viewBox="0 0 24 24">
      <path d="M12 0C5.373 0 0 5.373 0 12c0 3.314 1.343 6.314 3.515 8.485l-2.286 2.286C.775 23.225 1.097 24 1.738 24H12c6.627 0 12-5.373 12-12S18.627 0 12 0Zm4.388 3.199c1.104 0 1.999.895 1.999 1.999 0 1.105-.895 2-1.999 2-.946 0-1.739-.657-1.947-1.539v.002c-1.147.162-2.032 1.15-2.032 2.341v.007c1.776.067 3.4.567 4.686 1.363.473-.363 1.064-.58 1.707-.58 1.547 0 2.802 1.254 2.802 2.802 0 1.117-.655 2.081-1.601 2.531-.088 3.256-3.637 5.876-7.997 5.876-4.361 0-7.905-2.617-7.998-5.87-.954-.447-1.614-1.415-1.614-2.538 0-1.548 1.255-2.802 2.803-2.802.645 0 1.239.218 1.712.585 1.275-.79 2.881-1.291 4.64-1.365v-.01c0-1.663 1.263-3.034 2.88-3.207.188-.911.993-1.595 1.959-1.595Zm-8.085 8.376c-.784 0-1.459.78-1.506 1.797-.047 1.016.64 1.429 1.426 1.429.786 0 1.371-.369 1.418-1.385.047-1.017-.553-1.841-1.338-1.841Zm7.406 0c-.786 0-1.385.824-1.338 1.841.047 1.017.634 1.385 1.418 1.385.785 0 1.473-.413 1.426-1.429-.046-1.017-.721-1.797-1.506-1.797Zm-3.703 4.013c-.974 0-1.907.048-2.77.135-.147.015-.241.168-.183.305.483 1.154 1.622 1.964 2.953 1.964 1.33 0 2.47-.81 2.953-1.964.057-.137-.037-.29-.184-.305-.863-.087-1.795-.135-2.769-.135Z" fill="var(--dna-signal-dim)" stroke="none"/>
    </svg>
  </g>
  <rect x="0" y="50" width="64" height="14"
        fill="var(--dna-signal-dim)"/>
  <text x="32.0" y="59"
        text-anchor="middle"
        font-family="var(--dna-font-mono, 'SF Mono', monospace)"
        font-size="7" font-weight="700"
        fill="var(--dna-ink-on-accent)"
        letter-spacing="0.15em">REDDIT</text>
</g>


</svg>
