<svg xmlns="http://www.w3.org/2000/svg"
     xmlns:hw="https://hyperweave.app/hw/v1.0"
     role="img"
     aria-labelledby="hw-cs-instagram-title hw-cs-instagram-desc"
     viewBox="0 0 64 64"
     width="64" height="64"
     data-hw-type="icon"
     data-hw-frame="icon"
     data-hw-genome="cobalt-sapphire-deep"
     data-hw-status="active"
     data-hw-motion="ambient"
     data-hw-glyph="instagram"
     data-hw-chromatic="cobalt-sapphire-deep">
  <title id="hw-cs-instagram-title">Instagram — Cobalt Sapphire</title>
  <desc id="hw-cs-instagram-desc">Instagram social icon with cobalt-sapphire-deep DNA.
    Sapphire refraction ring, caustic crystal well, dark glyph silhouette
    with luminous edge refraction, orbital particles. Phi-timed SMIL.</desc>

  <metadata>
    <hw:artifact id="hw-cs-instagram-cobalt" type="icon" series="social" version="1.0.0">
      <hw:provenance>
        <hw:generator>Claude Opus 4.6 (InnerAura Labs) [claude-opus-4-6-20260210]</hw:generator>
        <hw:created>2026-03-27</hw:created>
        <hw:human-directed>true</hw:human-directed>
      </hw:provenance>
      <hw:spec size="64x64" performance="composite-only" theme="adaptive" a11y="WCAG-AA"/>
    </hw:artifact>
    <hw:aesthetic>
      <hw:chromatic system="cobalt-sapphire-deep" space="oklch" contrast-ratio="12.8:1"/>
      <hw:motion vocabulary="ring-rotation,caustic-pulse,stop-color-cycle,orbital-particle"
                 physics="sapphire-refraction+phi-cascade"
                 timing="phi" cim-compliant="true"/>
      <hw:geometry form-language="circular" proportional-system="phi"
                   mathematical-basis="sapphire-refraction"
                   symmetry="radial"/>
      <hw:material surface="sapphire-crystal" depth="deep"/>
    </hw:aesthetic>
    <hw:reasoning>
      <hw:intent>Instagram icon carrying cobalt-sapphire-deep DNA from the HyperWeave
        V11 formidable banner. Ring is sapphire waveguide, well is crystal interior,
        glyph is a solid form refracting light at its boundary.</hw:intent>
      <hw:approach>Dark void glyph (#0a0838) with sapphire edge stroke (#4080ff).
        Halo filter on glyph creates luminous boundary refraction. Filters scaled
        for 64px context. Two counter-orbiting particles at phi durations.</hw:approach>
      <hw:tradeoffs>3-tier filter chain heavy for 64px — accepted for DNA family
        coherence. No construction sequence — ambient life only. Single glyph path
        from SimpleIcons preserves recognizability. Dark glyph sacrifices the
        original platform brand color for sapphire DNA fidelity.</hw:tradeoffs>
      <hw:spatial-notes>Center (32,32). Ring r=28 (87.5%). Well r=26.5 (82.8%).
        Glyph 30x30 at (17,17). Particles orbit at r~30. 1:1 aspect.</hw:spatial-notes>
    </hw:reasoning>
  </metadata>

  <defs>
    <linearGradient id="cs-instagram-edge" x1="0%" y1="0%" x2="100%" y2="100%">
      <stop offset="0%" stop-color="#0a0838">
        <animate attributeName="stop-color"
                 values="#0a0838;#141070;#0a0838"
                 dur="13.708s" repeatCount="indefinite"
                 calcMode="spline" keySplines="0.42 0 0.58 1;0.42 0 0.58 1"/>
      </stop>
      <stop offset="18%" stop-color="#1838b0">
        <animate attributeName="stop-color"
                 values="#1838b0;#2850d8;#1030a0;#2048c8;#1838b0"
                 dur="5.236s" repeatCount="indefinite"
                 calcMode="spline"
                 keySplines="0.25 0.46 0.45 0.94;0.25 0.46 0.45 0.94;0.25 0.46 0.45 0.94;0.25 0.46 0.45 0.94"/>
      </stop>
      <stop offset="42%" stop-color="#4080ff">
        <animate attributeName="stop-color"
                 values="#4080ff;#60a0ff;#3070f0;#5090ff;#4080ff"
                 dur="3.236s" repeatCount="indefinite"
                 calcMode="spline"
                 keySplines="0.25 0.46 0.45 0.94;0.25 0.46 0.45 0.94;0.25 0.46 0.45 0.94;0.25 0.46 0.45 0.94"/>
      </stop>
      <stop offset="55%" stop-color="#d0e4ff">
        <animate attributeName="stop-color"
                 values="#d0e4ff;#e8f0ff;#b8d4ff;#dce8ff;#d0e4ff"
                 dur="8.472s" repeatCount="indefinite"
                 calcMode="spline"
                 keySplines="0.25 0.46 0.45 0.94;0.25 0.46 0.45 0.94;0.25 0.46 0.45 0.94;0.25 0.46 0.45 0.94"/>
      </stop>
      <stop offset="78%" stop-color="#5848d8">
        <animate attributeName="stop-color"
                 values="#5848d8;#7060f0;#4838c0;#6858e8;#5848d8"
                 dur="5.236s" repeatCount="indefinite"
                 calcMode="spline"
                 keySplines="0.25 0.46 0.45 0.94;0.25 0.46 0.45 0.94;0.25 0.46 0.45 0.94;0.25 0.46 0.45 0.94"/>
      </stop>
      <stop offset="100%" stop-color="#120860">
        <animate attributeName="stop-color"
                 values="#120860;#1c1088;#0c0650;#120860"
                 dur="13.708s" repeatCount="indefinite"
                 calcMode="spline"
                 keySplines="0.42 0 0.58 1;0.42 0 0.58 1;0.42 0 0.58 1"/>
      </stop>
      <animateTransform attributeName="gradientTransform" type="rotate"
                        from="0 .5 .5" to="360 .5 .5" dur="13.708s"
                        repeatCount="indefinite"/>
    </linearGradient>

    <radialGradient id="cs-instagram-caus" cx="35%" cy="35%" r="60%">
      <stop offset="0%" stop-color="#e8f0ff" stop-opacity="1">
        <animate attributeName="stop-opacity"
                 values="1;.75;1" dur="3.236s" repeatCount="indefinite"
                 calcMode="spline" keySplines="0.42 0 0.58 1;0.42 0 0.58 1"/>
      </stop>
      <stop offset="30%" stop-color="#4080ff" stop-opacity=".5">
        <animate attributeName="stop-color"
                 values="#4080ff;#60a0ff;#3070f0;#4080ff"
                 dur="5.236s" repeatCount="indefinite"
                 calcMode="spline"
                 keySplines="0.42 0 0.58 1;0.42 0 0.58 1;0.42 0 0.58 1"/>
      </stop>
      <stop offset="100%" stop-color="#0a0838" stop-opacity="1"/>
    </radialGradient>

    <radialGradient id="cs-instagram-part" cx="35%" cy="35%" r="55%">
      <stop offset="0%" stop-color="#d0e8ff" stop-opacity=".95">
        <animate attributeName="stop-color"
                 values="#d0e8ff;#b0d0ff;#e0f0ff;#d0e8ff"
                 dur="5.236s" repeatCount="indefinite"
                 calcMode="spline"
                 keySplines="0.42 0 0.58 1;0.42 0 0.58 1;0.42 0 0.58 1"/>
      </stop>
      <stop offset="100%" stop-color="#3060d0" stop-opacity="0"/>
    </radialGradient>

    <radialGradient id="cs-instagram-neb" cx="50%" cy="50%" r="55%">
      <stop offset="0%" stop-color="#2848c0" stop-opacity=".18">
        <animate attributeName="stop-opacity"
                 values=".18;.28;.12;.22;.18"
                 dur="13.708s" repeatCount="indefinite"
                 calcMode="spline"
                 keySplines="0.25 0.46 0.45 0.94;0.25 0.46 0.45 0.94;0.25 0.46 0.45 0.94;0.25 0.46 0.45 0.94"/>
      </stop>
      <stop offset="40%" stop-color="#1838a0" stop-opacity=".08"/>
      <stop offset="100%" stop-color="#0a0838" stop-opacity="0"/>
    </radialGradient>

    <filter id="cs-instagram-f-core" x="-40%" y="-40%" width="180%" height="180%">
      <feGaussianBlur in="SourceGraphic" stdDeviation="1.5" result="b1">
        <animate attributeName="stdDeviation"
                 values="1.5;2.2;1.2;1.8;1.5"
                 dur="5.236s" repeatCount="indefinite"
                 calcMode="spline"
                 keySplines="0.25 0.46 0.45 0.94;0.25 0.46 0.45 0.94;0.25 0.46 0.45 0.94;0.25 0.46 0.45 0.94"/>
      </feGaussianBlur>
      <feColorMatrix in="b1" type="matrix"
                     values="0.15 0 0.6 0 0.06
                             0.08 0.12 0.5 0 0.03
                             0.25 0.1 1.2 0 0.10
                             0 0 0 0.55 0" result="t1"/>
      <feMerge>
        <feMergeNode in="t1"/>
        <feMergeNode in="SourceGraphic"/>
      </feMerge>
    </filter>

    <filter id="cs-instagram-f-halo" x="-50%" y="-50%" width="200%" height="200%">
      <feGaussianBlur in="SourceGraphic" stdDeviation="3" result="b2"/>
      <feColorMatrix in="b2" type="matrix"
                     values="0.10 0 0.45 0 0.03
                             0.06 0.08 0.35 0 0.01
                             0.18 0.05 0.90 0 0.06
                             0 0 0 0.18 0" result="t2"/>
      <feMerge>
        <feMergeNode in="t2"/>
        <feMergeNode in="SourceGraphic"/>
      </feMerge>
    </filter>

    <filter id="cs-instagram-f-amb" x="-80%" y="-80%" width="260%" height="260%">
      <feGaussianBlur in="SourceGraphic" stdDeviation="5"/>
      <feColorMatrix type="matrix"
                     values="0.06 0 0.30 0 0.02
                             0.04 0.05 0.22 0 0.01
                             0.10 0.03 0.65 0 0.04
                             0 0 0 0.10 0"/>
    </filter>

    <clipPath id="cs-instagram-top-clip"><rect x="14" y="2" width="36" height="16"/></clipPath>
  </defs>

  <style>
    @media (prefers-reduced-motion: reduce) {
      *, *::before, *::after {
        animation-duration: 0.01ms !important;
        animation-iteration-count: 1 !important;
        transition-duration: 0.01ms !important;
      }
      animate, animateTransform, animateMotion, set {
        display: none !important;
      }
    }
    @media (forced-colors: active) {
      text { fill: CanvasText !important; }
      rect, path, circle, ellipse { stroke: CanvasText; }
    }
  </style>

  <!-- ATMOSPHERIC NEBULA -->
  <circle cx="32" cy="32" r="30" fill="url(#cs-instagram-neb)" opacity=".7"/>

  <!-- AMBIENT BLOOM -->
  <circle cx="32" cy="32" r="28" fill="none" stroke="url(#cs-instagram-edge)"
          stroke-width="4" filter="url(#cs-instagram-f-amb)" opacity=".4"/>

  <!-- RING — sapphire refraction waveguide -->
  <circle cx="32" cy="32" r="28" fill="none"
          stroke="url(#cs-instagram-edge)" stroke-width="3"
          filter="url(#cs-instagram-f-core)">
    <animate attributeName="stroke-width" values="3;3.5;2.8;3.2;3"
             dur="8.472s" repeatCount="indefinite"
             calcMode="spline"
             keySplines="0.25 0.46 0.45 0.94;0.25 0.46 0.45 0.94;0.25 0.46 0.45 0.94;0.25 0.46 0.45 0.94"/>
  </circle>

  <!-- WELL — sapphire crystal interior -->
  <circle cx="32" cy="32" r="26.5" fill="url(#cs-instagram-caus)"/>
  <circle cx="32" cy="32" r="26.5" fill="none" stroke="#0a0838" stroke-width="0.5"/>

  <!-- TOP-CLIP SPECULAR -->
  <g clip-path="url(#cs-instagram-top-clip)">
    <circle cx="32" cy="32" r="26" fill="none" stroke="#4080ff"
            stroke-width="0.8" opacity="0.2">
      <animate attributeName="opacity" values=".2;.35;.15;.28;.2"
               dur="5.236s" repeatCount="indefinite"
               calcMode="spline"
               keySplines="0.25 0.46 0.45 0.94;0.25 0.46 0.45 0.94;0.25 0.46 0.45 0.94;0.25 0.46 0.45 0.94"/>
    </circle>
  </g>

  <!-- GLYPH — dark silhouette with sapphire edge refraction -->
  <g transform="translate(17,17)" filter="url(#cs-instagram-f-halo)">
    <svg viewBox="0 0 24 24" width="30" height="30">
      <path d="M7.0301.084c-1.2768.0602-2.1487.264-2.911.5634-.7888.3075-1.4575.72-2.1228 1.3877-.6652.6677-1.075 1.3368-1.3802 2.127-.2954.7638-.4956 1.6365-.552 2.914-.0564 1.2775-.0689 1.6882-.0626 4.947.0062 3.2586.0206 3.6671.0825 4.9473.061 1.2765.264 2.1482.5635 2.9107.308.7889.72 1.4573 1.388 2.1228.6679.6655 1.3365 1.0743 2.1285 1.38.7632.295 1.6361.4961 2.9134.552 1.2773.056 1.6884.069 4.9462.0627 3.2578-.0062 3.668-.0207 4.9478-.0814 1.28-.0607 2.147-.2652 2.9098-.5633.7889-.3086 1.4578-.72 2.1228-1.3881.665-.6682 1.0745-1.3378 1.3795-2.1284.2957-.7632.4966-1.636.552-2.9124.056-1.2809.0692-1.6898.063-4.948-.0063-3.2583-.021-3.6668-.0817-4.9465-.0607-1.2797-.264-2.1487-.5633-2.9117-.3084-.7889-.72-1.4568-1.3876-2.1228C21.2982 1.33 20.628.9208 19.8378.6165 19.074.321 18.2017.1197 16.9244.0645 15.6471.0093 15.236-.005 11.977.0014 8.718.0076 8.31.0215 7.0301.0839m.1402 21.6932c-1.17-.0509-1.8053-.2453-2.2287-.408-.5606-.216-.96-.4771-1.3819-.895-.422-.4178-.6811-.8186-.9-1.378-.1644-.4234-.3624-1.058-.4171-2.228-.0595-1.2645-.072-1.6442-.079-4.848-.007-3.2037.0053-3.583.0607-4.848.05-1.169.2456-1.805.408-2.2282.216-.5613.4762-.96.895-1.3816.4188-.4217.8184-.6814 1.3783-.9003.423-.1651 1.0575-.3614 2.227-.4171 1.2655-.06 1.6447-.072 4.848-.079 3.2033-.007 3.5835.005 4.8495.0608 1.169.0508 1.8053.2445 2.228.408.5608.216.96.4754 1.3816.895.4217.4194.6816.8176.9005 1.3787.1653.4217.3617 1.056.4169 2.2263.0602 1.2655.0739 1.645.0796 4.848.0058 3.203-.0055 3.5834-.061 4.848-.051 1.17-.245 1.8055-.408 2.2294-.216.5604-.4763.96-.8954 1.3814-.419.4215-.8181.6811-1.3783.9-.4224.1649-1.0577.3617-2.2262.4174-1.2656.0595-1.6448.072-4.8493.079-3.2045.007-3.5825-.006-4.848-.0608M16.953 5.5864A1.44 1.44 0 1 0 18.39 4.144a1.44 1.44 0 0 0-1.437 1.4424M5.8385 12.012c.0067 3.4032 2.7706 6.1557 6.173 6.1493 3.4026-.0065 6.157-2.7701 6.1506-6.1733-.0065-3.4032-2.771-6.1565-6.174-6.1498-3.403.0067-6.156 2.771-6.1496 6.1738M8 12.0077a4 4 0 1 1 4.008 3.9921A3.9996 3.9996 0 0 1 8 12.0077"
            fill="#0a0838" stroke="#4080ff" stroke-width="0.25"/>
    </svg>
  </g>

  <!-- ORBITAL PARTICLES -->
  <circle r="1.8" fill="url(#cs-instagram-part)" filter="url(#cs-instagram-f-core)">
    <animateMotion path="M32,2 C62,32 32,62 2,32 S32,2 32,2" dur="8.472s"
                   repeatCount="indefinite"/>
    <animate attributeName="r" values="1.8;1.2;2.2;1.5;1.8"
             dur="8.472s" repeatCount="indefinite"
             calcMode="spline"
             keySplines="0.25 0.46 0.45 0.94;0.25 0.46 0.45 0.94;0.25 0.46 0.45 0.94;0.25 0.46 0.45 0.94"/>
    <animate attributeName="opacity" values=".85;.55;.95;.65;.85"
             dur="8.472s" repeatCount="indefinite"
             calcMode="spline"
             keySplines="0.25 0.46 0.45 0.94;0.25 0.46 0.45 0.94;0.25 0.46 0.45 0.94;0.25 0.46 0.45 0.94"/>
  </circle>
  <circle r="1.1" fill="#d0e4ff" opacity=".5">
    <animateMotion path="M62,32 C32,62 2,32 32,2 S62,32 62,32" dur="13.708s"
                   repeatCount="indefinite"/>
    <animate attributeName="opacity" values=".5;.8;.3;.6;.5"
             dur="13.708s" repeatCount="indefinite"
             calcMode="spline"
             keySplines="0.25 0.46 0.45 0.94;0.25 0.46 0.45 0.94;0.25 0.46 0.45 0.94;0.25 0.46 0.45 0.94"/>
  </circle>

</svg>